<?xml version="1.0" encoding="UTF-8" standalone="no"?>
<svg
   xmlns:dc="http://purl.org/dc/elements/1.1/"
   xmlns:cc="http://creativecommons.org/ns#"
   xmlns:rdf="http://www.w3.org/1999/02/22-rdf-syntax-ns#"
   xmlns:svg="http://www.w3.org/2000/svg"
   xmlns="http://www.w3.org/2000/svg"
   xmlns:sodipodi="http://sodipodi.sourceforge.net/DTD/sodipodi-0.dtd"
   xmlns:inkscape="http://www.inkscape.org/namespaces/inkscape"
   sodipodi:docname="man.svg"
   inkscape:version="1.0 (4035a4fb49, 2020-05-01)"
   id="svg8"
   version="1.1"
   viewBox="0 0 42.464199 46.87249"
   height="46.87249mm"
   width="42.464199mm">
  <defs
     id="defs2">
    <inkscape:path-effect
       only_selected="false"
       apply_with_weight="true"
       apply_no_weight="true"
       helper_size="0"
       steps="2"
       weight="33.333333"
       lpeversion="1"
       is_visible="true"
       id="path-effect999"
       effect="bspline" />
    <inkscape:path-effect
       only_selected="false"
       apply_with_weight="true"
       apply_no_weight="true"
       helper_size="0"
       steps="2"
       weight="33.333333"
       lpeversion="1"
       is_visible="true"
       id="path-effect991"
       effect="bspline" />
    <inkscape:path-effect
       only_selected="false"
       apply_with_weight="true"
       apply_no_weight="true"
       helper_size="0"
       steps="2"
       weight="33.333333"
       lpeversion="1"
       is_visible="true"
       id="path-effect912"
       effect="bspline" />
    <inkscape:path-effect
       only_selected="false"
       apply_with_weight="true"
       apply_no_weight="true"
       helper_size="0"
       steps="2"
       weight="33.333333"
       lpeversion="1"
       is_visible="true"
       id="path-effect908"
       effect="bspline" />
    <inkscape:path-effect
       only_selected="false"
       apply_with_weight="true"
       apply_no_weight="true"
       helper_size="0"
       steps="2"
       weight="33.333333"
       lpeversion="1"
       is_visible="true"
       id="path-effect904"
       effect="bspline" />
    <inkscape:path-effect
       only_selected="false"
       apply_with_weight="true"
       apply_no_weight="true"
       helper_size="0"
       steps="2"
       weight="33.333333"
       lpeversion="1"
       is_visible="true"
       id="path-effect900"
       effect="bspline" />
    <inkscape:path-effect
       only_selected="false"
       apply_with_weight="true"
       apply_no_weight="true"
       helper_size="0"
       steps="2"
       weight="33.333333"
       lpeversion="1"
       is_visible="true"
       id="path-effect896"
       effect="bspline" />
    <inkscape:path-effect
       only_selected="false"
       apply_with_weight="true"
       apply_no_weight="true"
       helper_size="0"
       steps="2"
       weight="33.333333"
       lpeversion="1"
       is_visible="true"
       id="path-effect892"
       effect="bspline" />
    <inkscape:path-effect
       only_selected="false"
       apply_with_weight="true"
       apply_no_weight="true"
       helper_size="0"
       steps="2"
       weight="33.333333"
       lpeversion="1"
       is_visible="true"
       id="path-effect888"
       effect="bspline" />
    <inkscape:path-effect
       only_selected="false"
       apply_with_weight="true"
       apply_no_weight="true"
       helper_size="0"
       steps="2"
       weight="33.333333"
       lpeversion="1"
       is_visible="true"
       id="path-effect884"
       effect="bspline" />
    <inkscape:path-effect
       only_selected="false"
       apply_with_weight="true"
       apply_no_weight="true"
       helper_size="0"
       steps="2"
       weight="33.333333"
       lpeversion="1"
       is_visible="true"
       id="path-effect880"
       effect="bspline" />
    <inkscape:path-effect
       only_selected="false"
       apply_with_weight="true"
       apply_no_weight="true"
       helper_size="0"
       steps="2"
       weight="33.333333"
       lpeversion="1"
       is_visible="true"
       id="path-effect876"
       effect="bspline" />
    <inkscape:path-effect
       only_selected="false"
       apply_with_weight="true"
       apply_no_weight="true"
       helper_size="0"
       steps="2"
       weight="33.333333"
       lpeversion="1"
       is_visible="true"
       id="path-effect872"
       effect="bspline" />
    <inkscape:path-effect
       only_selected="false"
       apply_with_weight="true"
       apply_no_weight="true"
       helper_size="0"
       steps="2"
       weight="33.333333"
       lpeversion="1"
       is_visible="true"
       id="path-effect862"
       effect="bspline" />
  </defs>
  <sodipodi:namedview
     inkscape:guide-bbox="true"
     showguides="true"
     inkscape:window-maximized="0"
     inkscape:window-y="0"
     inkscape:window-x="0"
     inkscape:window-height="728"
     inkscape:window-width="1350"
     inkscape:showpageshadow="false"
     showborder="false"
     inkscape:pagecheckerboard="true"
     fit-margin-bottom="0"
     fit-margin-right="0"
     fit-margin-left="0"
     fit-margin-top="0"
     showgrid="false"
     inkscape:document-rotation="0"
     inkscape:current-layer="layer1"
     inkscape:document-units="mm"
     inkscape:cy="91.131951"
     inkscape:cx="77.220027"
     inkscape:zoom="3.959798"
     inkscape:pageshadow="2"
     inkscape:pageopacity="0.0"
     borderopacity="1.0"
     bordercolor="#666666"
     pagecolor="#ffffff"
     id="base">
    <sodipodi:guide
       id="guide941"
       orientation="0,-1"
       position="-14.566189,0.10032254" />
  </sodipodi:namedview>
  <metadata
     id="metadata5">
    <rdf:RDF>
      <cc:Work
         rdf:about="">
        <dc:format>image/svg+xml</dc:format>
        <dc:type
           rdf:resource="http://purl.org/dc/dcmitype/StillImage" />
        <dc:title></dc:title>
      </cc:Work>
    </rdf:RDF>
  </metadata>
  <g
     transform="translate(-88.449433,-14.35857)"
     id="layer1"
     inkscape:groupmode="layer"
     inkscape:label="Layer 1">
    <ellipse
       ry="15.868123"
       rx="15.301159"
       cy="30.61607"
       cx="106.58928"
       id="path10"
       style="fill:none;stroke:#000000;stroke-width:0.778754;stroke-miterlimit:4;stroke-dasharray:none;stroke-opacity:1" />
    <circle
       r="1.7008927"
       cy="28.092409"
       cx="100.71918"
       id="path839"
       style="fill:#000000;fill-opacity:1;stroke:none;stroke-width:0.245893;stroke-miterlimit:4;stroke-dasharray:none;stroke-opacity:1" />
    <circle
       style="fill:#000000;fill-opacity:1;stroke:none;stroke-width:0.245893;stroke-miterlimit:4;stroke-dasharray:none;stroke-opacity:1"
       id="path839-5"
       cx="113.41578"
       cy="25.333902"
       r="1.7008927" />
    <path
       inkscape:original-d="m 100.2929,16.102988 c 0.18082,-0.01963 0.359,-0.0419 0.53453,-0.06682 0.0249,-0.0419 0.0472,-0.08644 0.0668,-0.133635 0.0695,0.0026 0.13628,0.0026 0.20045,0 0.13628,-0.06417 0.26992,-0.130989 0.40091,-0.200452 0.0695,0.0026 0.13628,0.0026 0.20045,0 0.003,-0.01963 0.003,-0.0419 0,-0.06682 0.58173,0.0026 1.16081,0.0026 1.73725,0 0.2031,0.114008 0.40355,0.22537 0.60136,0.334087 0.0472,0.0026 0.0917,0.0026 0.13363,0 0.0249,0.04719 0.0472,0.09173 0.0668,0.133634 0.0695,0.02492 0.13628,0.04719 0.20045,0.06682 0.0472,0.04719 0.0917,0.09173 0.13364,0.133635 -0.0419,-0.153262 -0.0864,-0.309169 -0.13364,-0.467722 -0.1978,-0.264624 -0.39826,-0.531893 -0.60135,-0.801809 -0.10872,-0.06417 -0.22008,-0.130989 -0.33409,-0.200452 0.0249,0.0026 0.0472,0.0026 0.0668,0 0.003,-0.01963 0.003,-0.0419 0,-0.06682 0.22537,0.0026 0.44809,0.0026 0.66817,0 0.24764,0.0026 0.49264,0.0026 0.73499,0 0.2031,-0.01963 0.40355,-0.0419 0.60136,-0.06682 0.003,0.02492 0.003,0.04719 0,0.06682 0.13628,0.0026 0.26991,0.0026 0.4009,0 0.003,0.02492 0.003,0.04719 0,0.06682 0.15856,0.02492 0.31446,0.04719 0.46772,0.06682"
       inkscape:path-effect="#path-effect862"
       id="path860"
       d="m 100.2929,16.102988 c 0.18045,-0.02256 0.35863,-0.04483 0.45745,-0.07757 0.0988,-0.03274 0.12109,-0.07729 0.16723,-0.100089 0.0461,-0.0228 0.11293,-0.0228 0.21236,-0.05647 0.0994,-0.03367 0.23307,-0.100491 0.33411,-0.133635 0.10104,-0.03314 0.16782,-0.03314 0.19991,-0.04296 0.0321,-0.0098 0.0321,-0.03209 0.32295,-0.04454 0.29086,-0.01246 0.86994,-0.01246 1.25996,0.04409 0.39002,0.05656 0.59047,0.167916 0.71272,0.222724 0.12226,0.05481 0.16676,0.05481 0.19965,0.07866 0.0329,0.02386 0.0552,0.06841 0.10051,0.100766 0.0454,0.03235 0.11214,0.05462 0.16756,0.08882 0.0554,0.0342 0.0999,0.07872 0.0991,0.0233 -8.6e-4,-0.05542 -0.0454,-0.211315 -0.16724,-0.423 -0.12184,-0.211684 -0.32229,-0.478958 -0.47775,-0.646549 -0.15546,-0.16759 -0.26682,-0.234407 -0.31161,-0.268749 -0.0448,-0.03434 -0.0225,-0.03434 -0.0127,-0.04416 0.01,-0.0098 0.01,-0.03209 0.12249,-0.04454 0.11268,-0.01246 0.3354,-0.01246 0.56926,-0.01246 0.23386,0 0.47886,0 0.70142,-0.01127 0.22257,-0.01127 0.42302,-0.03354 0.52208,-0.03209 0.0991,0.0015 0.0991,0.02372 0.16721,0.03354 0.0681,0.0098 0.20177,0.0098 0.26726,0.02228 0.0655,0.01246 0.0655,0.03473 0.14494,0.05589 0.0794,0.02116 0.23534,0.04344 0.38828,0.06529"
       style="fill:none;stroke:#000000;stroke-width:0.665;stroke-linecap:butt;stroke-linejoin:miter;stroke-miterlimit:4;stroke-dasharray:none;stroke-opacity:1" />
    <path
       inkscape:transform-center-y="0.011430235"
       inkscape:transform-center-x="-0.84255384"
       transform="matrix(0.99706376,-0.07657579,0,1,0,0)"
       d="m 113.11646,43.766656 a 4.5904694,1.5702084 0 0 1 -2.03502,2.09313 4.5904694,1.5702084 0 0 1 -6.14565,-0.668286 l 4.06272,-0.730971 z"
       sodipodi:arc-type="slice"
       sodipodi:end="2.6573653"
       sodipodi:start="5.8254712"
       sodipodi:ry="1.5702084"
       sodipodi:rx="4.5904694"
       sodipodi:cy="44.460529"
       sodipodi:cx="108.99851"
       sodipodi:type="arc"
       id="path864"
       style="fill:none;fill-opacity:1;stroke:#000000;stroke-width:0.665979;stroke-miterlimit:4;stroke-dasharray:none;stroke-opacity:1" />
    <path
       inkscape:original-d="m 95.816964,25.607887 c 1.262565,-0.202092 2.522487,-0.406829 3.779761,-0.614212 0.553865,-0.154844 1.105075,-0.312334 1.653645,-0.47247 0.20738,-0.09185 0.41212,-0.186342 0.61421,-0.283482 0.27038,0.0026 0.53811,0.0026 0.8032,0 0.33338,-0.0446 0.66411,-0.09185 0.99219,-0.141741 0.11289,0.0026 0.22313,0.0026 0.33073,0 0.0499,-0.02885 0.0971,-0.06035 0.14174,-0.09449 0.0184,0.08139 0.0341,0.160136 0.0472,0.236235 0.0814,0.238881 0.16013,0.475116 0.23623,0.708705 0.11289,0.333375 0.22313,0.664104 0.33073,0.992188 0.12864,0.223132 0.25463,0.443618 0.37798,0.661457 0.0971,0.238882 0.19163,0.475118 0.28348,0.708708 0.003,0.08139 0.003,0.160133 0,0.236233 0.0341,0.06564 0.0656,0.128638 0.0945,0.188989 0.0184,0.0026 0.0341,0.0026 0.0473,0 0.003,0.03414 0.003,0.06564 0,0.09449 0.0341,0.03414 0.0656,0.06564 0.0945,0.09449 0.0656,0.128637 0.12863,0.254632 0.18898,0.377978 -0.17059,0.25463 -0.34383,0.506614 -0.51971,0.755952 -0.1706,0.144385 -0.34384,0.286128 -0.51972,0.425222 -0.17059,0.08139 -0.34383,0.160137 -0.51972,0.236236 -0.0131,0.03414 -0.0289,0.06564 -0.0473,0.09449 -0.28083,0.160137 -0.56431,0.317627 -0.85044,0.472472 -0.1706,0.06564 -0.34384,0.128638 -0.51972,0.188987 -0.1076,0.08139 -0.21784,0.160136 -0.33073,0.236235 -0.32808,0.08139 -0.65881,0.160137 -0.99219,0.236236 -0.0761,0.04989 -0.15484,0.09714 -0.23623,0.14174 -0.12335,0.04989 -0.24934,0.09714 -0.37798,0.14174 -0.13909,0.08139 -0.28084,0.160137 -0.42522,0.236236 -0.29659,0.11289 -0.595819,0.223134 -0.897695,0.330729 -0.265086,0.04989 -0.532821,0.09714 -0.803199,0.141743 -0.06035,0.01839 -0.123346,0.03414 -0.188989,0.04725 -0.06035,0.0026 -0.123346,0.0026 -0.188987,0 -0.296587,0.08139 -0.595817,0.160137 -0.897694,0.236234 -0.09185,0.03414 -0.186343,0.06564 -0.283482,0.0945 0.0026,-0.359582 0.0026,-0.72181 0,-1.086684 -0.0446,-0.107595 -0.09185,-0.217839 -0.14174,-0.330729 -0.09185,-0.233587 -0.186344,-0.469823 -0.283483,-0.708705 -0.0131,-0.06035 -0.02885,-0.123346 -0.04725,-0.188987 -0.02885,-0.02885 -0.06035,-0.06035 -0.0945,-0.0945 -0.0446,-0.186341 -0.09185,-0.37533 -0.14174,-0.566963 -0.06035,-0.170593 -0.123346,-0.343834 -0.188989,-0.519718 -0.0131,-0.0446 -0.02885,-0.09185 -0.04725,-0.14174 -0.0131,-0.123346 -0.02885,-0.249338 -0.04725,-0.377976 -0.0761,-0.186343 -0.154844,-0.375333 -0.236236,-0.566965 0.0026,-0.06035 0.0026,-0.123346 0,-0.188989 -0.0446,-0.139094 -0.09185,-0.280837 -0.14174,-0.425223 -0.0131,-0.280836 -0.02885,-0.564319 -0.04725,-0.850446 0.0026,-0.21784 0.0026,-0.438326 0,-0.661458 z"
       inkscape:path-effect="#path-effect872"
       id="path870"
       d="m 96.448003,25.505343 c 0.631039,-0.102544 1.890961,-0.307282 2.796325,-0.48847 0.905362,-0.181188 1.456572,-0.338677 1.834262,-0.46469 0.37769,-0.126013 0.58243,-0.220508 0.8194,-0.267484 0.23697,-0.04698 0.5047,-0.04698 0.80372,-0.07076 0.29903,-0.02378 0.62976,-0.07103 0.85045,-0.09449 0.2207,-0.02346 0.33094,-0.02346 0.40867,-0.03942 0.0777,-0.01595 0.12495,-0.04743 0.15645,-0.02208 0.0315,0.02535 0.0472,0.104086 0.0947,0.26164 0.0475,0.157554 0.1262,0.393785 0.2207,0.677268 0.0945,0.283482 0.20473,0.61421 0.32322,0.889799 0.11848,0.275588 0.24448,0.496072 0.35446,0.724456 0.10999,0.228384 0.20448,0.464633 0.25109,0.621849 0.0466,0.157217 0.0466,0.23596 0.0631,0.307086 0.0165,0.07112 0.048,0.134123 0.0722,0.164043 0.0242,0.02992 0.0399,0.02992 0.0465,0.04699 0.007,0.01707 0.007,0.04857 0.0237,0.08005 0.0171,0.03148 0.0486,0.06298 0.0953,0.141995 0.0467,0.07901 0.10972,0.205021 0.0536,0.392703 -0.0561,0.187681 -0.22935,0.439667 -0.40225,0.636131 -0.1729,0.196464 -0.34615,0.338206 -0.51893,0.448292 -0.17278,0.110087 -0.34602,0.188833 -0.44139,0.244749 -0.0954,0.05592 -0.11114,0.08743 -0.26004,0.181142 -0.14891,0.09371 -0.43239,0.251202 -0.66046,0.361426 -0.22807,0.110225 -0.40131,0.173221 -0.54354,0.244182 -0.14223,0.07096 -0.25248,0.149705 -0.47226,0.228402 -0.21978,0.0787 -0.55051,0.157442 -0.75581,0.220432 -0.20531,0.06299 -0.28405,0.110236 -0.38608,0.157445 -0.10203,0.04721 -0.22803,0.09445 -0.36217,0.157472 -0.13414,0.06302 -0.27589,0.141767 -0.49609,0.236239 -0.22019,0.09447 -0.519424,0.204715 -0.802584,0.283544 -0.283159,0.07883 -0.550895,0.126078 -0.716381,0.157529 -0.165486,0.03145 -0.228482,0.0472 -0.29109,0.05531 -0.06261,0.0081 -0.125604,0.0081 -0.307129,0.04724 -0.181525,0.03913 -0.480756,0.117877 -0.677736,0.172974 -0.19698,0.0551 -0.291474,0.0866 -0.339515,-0.07718 -0.04804,-0.163776 -0.04804,-0.526004 -0.07098,-0.761965 -0.02294,-0.235961 -0.07019,-0.346206 -0.141102,-0.519444 -0.07092,-0.173238 -0.16541,-0.409474 -0.220782,-0.55913 -0.05537,-0.149655 -0.07112,-0.212651 -0.09381,-0.260131 -0.02269,-0.04748 -0.05419,-0.07898 -0.0945,-0.188991 -0.04031,-0.110012 -0.08756,-0.299002 -0.142487,-0.480077 -0.05493,-0.181076 -0.117928,-0.354317 -0.157351,-0.464564 -0.03942,-0.110248 -0.05517,-0.157497 -0.07127,-0.244238 -0.0161,-0.08674 -0.03185,-0.212733 -0.07861,-0.370092 -0.04677,-0.157359 -0.125512,-0.346348 -0.165549,-0.472614 -0.04004,-0.126265 -0.04004,-0.189261 -0.06313,-0.291365 -0.02309,-0.102104 -0.07034,-0.243848 -0.102291,-0.456653 -0.03195,-0.212806 -0.0477,-0.496289 -0.05565,-0.748342 -0.008,-0.252053 -0.008,-0.472539 -0.008,-0.584105 0,-0.111566 5.8e-5,-0.111563 0.631097,-0.214107 z"
       style="fill:none;stroke:#000000;stroke-width:0.264583px;stroke-linecap:butt;stroke-linejoin:miter;stroke-opacity:1" />
    <path
       inkscape:original-d="m 107.9122,23.34003 c 0.0656,0.317625 0.12864,0.632606 0.18899,0.94494 0.0971,0.191634 0.19163,0.380622 0.28348,0.566964 0.0814,0.286128 0.16014,0.56961 0.23624,0.850447 0.14438,0.380622 0.28612,0.758598 0.42522,1.133928 0.0184,0.128638 0.0341,0.25463 0.0472,0.377976 0.0971,0.254629 0.19163,0.506613 0.28348,0.755954 0.0499,0.01839 0.0971,0.03414 0.14174,0.04725 0.0341,0.160136 0.0656,0.317624 0.0945,0.472469 0.31762,0.08139 0.6326,0.160136 0.94493,0.236235 0.74285,0.04989 1.48306,0.09714 2.22061,0.14174 0.42787,-0.02885 0.8531,-0.06035 1.27567,-0.09449 0.0814,-0.0446 0.16014,-0.09185 0.23624,-0.14174 0.11289,0.0026 0.22313,0.0026 0.33073,0 0.36487,-0.123346 0.7271,-0.24934 1.08668,-0.377978 0.11289,-0.06035 0.22313,-0.123346 0.33073,-0.188987 0.30188,-0.0761 0.60111,-0.154845 0.89769,-0.236236 0.16014,-0.139094 0.31763,-0.280836 0.47247,-0.425222 0.0657,-0.0446 0.12864,-0.09185 0.18899,-0.141743 0.0184,0.0026 0.0341,0.0026 0.0472,0 0.003,-0.217839 0.003,-0.438324 0,-0.661458 -0.0131,-0.501321 -0.0288,-1.005289 -0.0472,-1.511904 -0.0289,-0.06035 -0.0603,-0.123346 -0.0945,-0.188988 0.003,-0.0761 0.003,-0.154844 0,-0.236235 -0.0446,-0.107597 -0.0918,-0.21784 -0.14174,-0.330729 -0.0131,-0.09185 -0.0289,-0.186342 -0.0473,-0.283482 -0.0288,-0.0131 -0.0603,-0.02885 -0.0945,-0.04725 0.003,-0.0446 0.003,-0.09185 0,-0.141741 -0.0446,-0.139096 -0.0918,-0.280837 -0.14175,-0.425223 0.003,-0.06035 0.003,-0.123347 0,-0.188989 -0.0603,-0.139095 -0.12334,-0.280836 -0.18898,-0.425223 0.003,-0.186342 0.003,-0.37533 0,-0.566964 -0.0131,0.0026 -0.0289,0.0026 -0.0472,0 0.003,-0.09185 0.003,-0.186342 0,-0.283482 -0.0603,-0.107597 -0.12335,-0.21784 -0.18899,-0.330729 -0.1391,0.01839 -0.28084,0.03414 -0.42522,0.04725 -0.42258,0.0026 -0.8478,0.0026 -1.27567,0 -0.18634,0.06564 -0.37533,0.128638 -0.56697,0.188988 -0.21784,0.04989 -0.43832,0.09714 -0.66145,0.141741 -0.12335,0.0026 -0.24934,0.0026 -0.37798,0 -0.24934,0.128638 -0.50132,0.25463 -0.75595,0.377976 -0.28084,0.04989 -0.56432,0.09714 -0.85045,0.141741 -0.0761,0.03414 -0.15484,0.06564 -0.23624,0.09449 -0.0918,0.0026 -0.18634,0.0026 -0.28348,0 -0.24934,0.04989 -0.50132,0.09714 -0.75595,0.141741 -0.1076,0.0026 -0.21784,0.0026 -0.33073,0 -0.28084,0.06564 -0.56432,0.128638 -0.85044,0.188988 -0.12335,0.0026 -0.24934,0.0026 -0.37798,0 -0.0761,0.03414 -0.15484,0.06564 -0.23624,0.09449 -0.15484,0.0026 -0.31233,0.0026 -0.47247,0 -0.0131,0.01839 -0.0288,0.03414 -0.0472,0.04725 -0.0761,0.08139 -0.15485,0.160136 -0.23624,0.236236 z"
       inkscape:path-effect="#path-effect876"
       id="path874"
       d="m 107.944,23.499042 c 0.0318,0.159012 0.0948,0.474001 0.17403,0.726038 0.0792,0.252037 0.17373,0.44104 0.26,0.677258 0.0863,0.236219 0.16501,0.519699 0.27541,0.850453 0.11041,0.330754 0.25215,0.70873 0.33047,0.960586 0.0783,0.251857 0.0941,0.377845 0.14958,0.566957 0.0555,0.189111 0.15002,0.441107 0.22188,0.573911 0.0719,0.132804 0.11907,0.14854 0.15718,0.236159 0.0381,0.08762 0.0696,0.245107 0.2441,0.362092 0.17449,0.116985 0.48947,0.19573 1.0169,0.258427 0.52744,0.0627 1.26765,0.109943 1.85017,0.117638 0.58253,0.0077 1.00776,-0.0238 1.25892,-0.06332 0.25115,-0.03952 0.32989,-0.08676 0.42532,-0.11015 0.0954,-0.02339 0.20567,-0.02339 0.44135,-0.08665 0.23568,-0.06326 0.59791,-0.189257 0.83381,-0.283728 0.23589,-0.09447 0.34613,-0.157465 0.55135,-0.228332 0.20523,-0.07087 0.50446,-0.149613 0.73198,-0.259682 0.22752,-0.110069 0.38501,-0.25181 0.49541,-0.34641 0.1104,-0.0946 0.17336,-0.14182 0.21384,-0.165285 0.0405,-0.02346 0.0562,-0.02346 0.0627,-0.132385 0.007,-0.108919 0.007,-0.329404 -0.001,-0.691592 -0.008,-0.362187 -0.0236,-0.866154 -0.0464,-1.149422 -0.0229,-0.283267 -0.0543,-0.346223 -0.0709,-0.41737 -0.0165,-0.07115 -0.0165,-0.14989 -0.0395,-0.24411 -0.0229,-0.09422 -0.0702,-0.204446 -0.10212,-0.306918 -0.032,-0.102471 -0.0477,-0.196968 -0.07,-0.252786 -0.0223,-0.05582 -0.0538,-0.07157 -0.0711,-0.102548 -0.0174,-0.03098 -0.0174,-0.07823 -0.0405,-0.172458 -0.0231,-0.09423 -0.0703,-0.235954 -0.0945,-0.338595 -0.0242,-0.102641 -0.0242,-0.165638 -0.0549,-0.267725 -0.0308,-0.102087 -0.0938,-0.243845 -0.12599,-0.409483 -0.0322,-0.165637 -0.0322,-0.354625 -0.0388,-0.450442 -0.007,-0.09582 -0.0224,-0.09582 -0.0315,-0.141742 -0.009,-0.04593 -0.009,-0.140417 -0.0397,-0.24253 -0.0306,-0.102114 -0.0936,-0.21238 -0.19571,-0.261322 -0.1021,-0.04894 -0.24384,-0.03319 -0.52716,-0.02519 -0.28332,0.008 -0.70854,0.008 -1.01617,0.03924 -0.30764,0.03123 -0.49663,0.09423 -0.70117,0.149403 -0.20454,0.05517 -0.42502,0.10242 -0.59793,0.126256 -0.17291,0.02384 -0.2989,0.02384 -0.48868,0.08657 -0.18979,0.06273 -0.44177,0.188723 -0.70896,0.275428 -0.26719,0.08671 -0.55067,0.133952 -0.73217,0.173229 -0.18151,0.03928 -0.26025,0.07077 -0.34621,0.0868 -0.086,0.01602 -0.1805,0.01602 -0.35402,0.03945 -0.17353,0.02343 -0.42551,0.07067 -0.60634,0.09449 -0.18083,0.02382 -0.29107,0.02382 -0.48828,0.0551 -0.1972,0.03128 -0.48068,0.09428 -0.68508,0.125992 -0.20439,0.03171 -0.33038,0.03171 -0.43339,0.04719 -0.10301,0.01547 -0.18175,0.04697 -0.29923,0.06299 -0.11748,0.01602 -0.27497,0.01602 -0.36291,0.0239 -0.0879,0.0079 -0.10365,0.02361 -0.1509,0.07086 -0.0473,0.04725 -0.12599,0.126001 -0.16537,0.165373 -0.0394,0.03937 -0.0393,0.03937 -0.008,0.198383 z"
       style="fill:none;stroke:#000000;stroke-width:0.264583px;stroke-linecap:butt;stroke-linejoin:miter;stroke-opacity:1" />
    <path
       inkscape:original-d="m 105.17187,26.600073 c 0.41212,0.06564 0.8216,0.128638 1.22843,0.188989 0.41212,-0.02885 0.82159,-0.06035 1.22842,-0.09449 0.11289,-0.09185 0.22313,-0.186344 0.33073,-0.283483 0.003,-0.0131 0.003,-0.02885 0,-0.04725 0.12864,-0.123346 0.25463,-0.249338 0.37798,-0.377976 0.003,-0.02885 0.003,-0.06035 0,-0.09449 0.0341,-0.0131 0.0656,-0.02885 0.0945,-0.04725 0.0341,-0.0761 0.0656,-0.154844 0.0945,-0.236235"
       inkscape:path-effect="#path-effect880"
       id="path878"
       d="m 105.17187,26.600073 c 0.41246,0.06346 0.82194,0.126452 1.23113,0.141879 0.4092,0.01543 0.81867,-0.01607 1.07743,-0.07907 0.25875,-0.063 0.36899,-0.157489 0.42401,-0.211193 0.055,-0.0537 0.055,-0.06945 0.11801,-0.14165 0.063,-0.0722 0.18899,-0.198187 0.25198,-0.275608 0.063,-0.07742 0.063,-0.108922 0.0793,-0.134122 0.0163,-0.0252 0.0478,-0.04095 0.0785,-0.08725 0.0307,-0.0463 0.0622,-0.125045 0.0943,-0.205174"
       style="fill:none;stroke:#000000;stroke-width:0.264583px;stroke-linecap:butt;stroke-linejoin:miter;stroke-opacity:1" />
    <path
       inkscape:original-d="m 96.242186,28.915177 c -0.280836,-0.0131 -0.564319,-0.02885 -0.850445,-0.04725 -0.06035,-0.02885 -0.123348,-0.06035 -0.188989,-0.09449 -0.123346,0.0026 -0.249338,0.0026 -0.377976,0 -0.217842,-0.02885 -0.438327,-0.06035 -0.661458,-0.09449 -0.0131,-0.0131 -0.02885,-0.02885 -0.04725,-0.04725 -0.107598,-0.0131 -0.217842,-0.02885 -0.330729,-0.04725 -0.202091,-0.0446 -0.406828,-0.09185 -0.614211,-0.14174 -0.06035,0.0026 -0.123347,0.0026 -0.18899,0 -0.18634,-0.0446 -0.37533,-0.09185 -0.566962,-0.14174 -0.0131,-0.0131 -0.02885,-0.02885 -0.04725,-0.04725 -0.02885,-0.0131 -0.06035,-0.02885 -0.09449,-0.04725 -0.454075,0.0026 -0.910796,0.0026 -1.370163,0 -0.170593,0.08139 -0.343831,0.160137 -0.519718,0.236236 -0.170593,0.08139 -0.343832,0.160136 -0.519716,0.236236 -0.0446,0.09714 -0.09185,0.191632 -0.141743,0.283482 -0.02885,0.01839 -0.06035,0.03414 -0.09449,0.04725 -0.0446,0.09714 -0.09185,0.191632 -0.14174,0.283483 0.0026,0.04989 0.0026,0.09714 0,0.141739 -0.0446,0.09714 -0.09185,0.191636 -0.141742,0.283483 0.0026,0.08139 0.0026,0.160136 0,0.236236 -0.0446,0.08139 -0.09185,0.160134 -0.14174,0.236233 -0.0131,0.191635 -0.02885,0.380622 -0.04725,0.566965 -0.02885,0.396372 -0.06035,0.790096 -0.0945,1.181177 0.06564,0.144386 0.128638,0.286126 0.188989,0.425222 0.0026,0.06564 0.0026,0.128638 0,0.188987 0.191633,0.286128 0.380622,0.569611 0.566965,0.850447 0.223131,0.191635 0.443617,0.380622 0.661459,0.566965"
       inkscape:path-effect="#path-effect884"
       id="path882"
       d="m 96.242186,28.915177 c -0.280697,-0.0156 -0.56418,-0.03134 -0.737223,-0.05425 -0.173043,-0.02291 -0.236042,-0.05441 -0.330799,-0.07095 -0.09476,-0.01654 -0.22075,-0.01654 -0.393831,-0.03208 -0.173081,-0.01554 -0.393567,-0.04703 -0.511841,-0.06954 -0.118274,-0.02251 -0.134024,-0.03826 -0.196864,-0.05512 -0.06284,-0.01686 -0.173084,-0.03261 -0.330509,-0.06397 -0.157425,-0.03135 -0.362163,-0.0786 -0.496252,-0.10258 -0.134089,-0.02398 -0.197086,-0.02398 -0.322844,-0.04721 -0.125758,-0.02323 -0.314749,-0.07048 -0.417348,-0.101044 -0.102599,-0.03056 -0.118349,-0.04631 -0.141709,-0.06259 -0.02336,-0.01628 -0.05486,-0.03203 -0.299232,-0.0407 -0.244373,-0.0087 -0.701094,-0.0087 -1.016799,0.03043 -0.315704,0.0391 -0.488943,0.117845 -0.662183,0.196591 -0.173239,0.07875 -0.346479,0.157491 -0.457584,0.244911 -0.111106,0.08742 -0.158353,0.181914 -0.19693,0.236242 -0.03858,0.05433 -0.07008,0.07008 -0.110242,0.125995 -0.04017,0.05592 -0.08741,0.15041 -0.110771,0.222074 -0.02336,0.07166 -0.02336,0.118913 -0.04725,0.188988 -0.02389,0.07008 -0.07114,0.164573 -0.0945,0.251985 -0.02336,0.08741 -0.02336,0.166158 -0.04722,0.243969 -0.02386,0.07781 -0.0711,0.156557 -0.102469,0.291238 -0.03137,0.134681 -0.04712,0.323668 -0.07074,0.615031 -0.02362,0.291363 -0.05512,0.685087 -0.03857,0.953206 0.01655,0.26812 0.07955,0.409861 0.11034,0.511956 0.03079,0.102095 0.03079,0.165093 0.126301,0.338535 0.09551,0.173442 0.2845,0.456925 0.489636,0.692847 0.205136,0.235923 0.425621,0.424911 0.643276,0.611472"
       style="fill:none;stroke:#000000;stroke-width:0.264583px;stroke-linecap:butt;stroke-linejoin:miter;stroke-opacity:1" />
    <path
       inkscape:original-d="m 117.64509,24.662946 c 0.31762,-0.202091 0.6326,-0.406828 0.94494,-0.614211 0.0814,-0.123346 0.16013,-0.249339 0.23623,-0.377976 0.0341,-0.0131 0.0656,-0.02885 0.0945,-0.04725 0.14438,-0.280837 0.28613,-0.564319 0.42522,-0.850447 0.003,-0.0761 0.003,-0.154844 0,-0.236235 0.0341,-0.107597 0.0656,-0.21784 0.0945,-0.330729 0.003,-0.107597 0.003,-0.21784 0,-0.330729 0.0184,-0.06035 0.0341,-0.123346 0.0472,-0.188988"
       inkscape:path-effect="#path-effect888"
       id="path886"
       d="m 117.64509,24.662946 c 0.31563,-0.205157 0.63061,-0.409894 0.82692,-0.574694 0.19632,-0.1648 0.27506,-0.290787 0.33092,-0.36227 0.0558,-0.07148 0.0874,-0.08723 0.17319,-0.236064 0.0859,-0.148831 0.22759,-0.432317 0.29873,-0.612637 0.0711,-0.180319 0.0711,-0.259063 0.0866,-0.354 0.0155,-0.09494 0.047,-0.205181 0.063,-0.31498 0.016,-0.1098 0.016,-0.220043 0.0236,-0.307054 0.008,-0.08701 0.0234,-0.149998 0.0396,-0.214866"
       style="fill:none;stroke:#000000;stroke-width:0.264583px;stroke-linecap:butt;stroke-linejoin:miter;stroke-opacity:1" />
    <path
       inkscape:original-d="m 107.01451,31.56101 c 0.22313,0.09714 0.44362,0.191635 0.66146,0.283483 -0.15485,0.03414 -0.31234,0.06564 -0.47247,0.0945 -0.0603,-0.123346 -0.12335,-0.249338 -0.18899,-0.377979 z"
       inkscape:path-effect="#path-effect892"
       id="path890"
       d="m 107.12635,31.608941 c 0.11184,0.04793 0.33233,0.142427 0.36324,0.204536 0.0309,0.06211 -0.12657,0.09361 -0.23703,0.04817 -0.11046,-0.04545 -0.17347,-0.171459 -0.20576,-0.236044 -0.0323,-0.06458 -0.0323,-0.06459 0.0795,-0.01666 z"
       style="fill:none;stroke:#000000;stroke-width:0.264583px;stroke-linecap:butt;stroke-linejoin:miter;stroke-opacity:1" />
    <path
       inkscape:original-d="m 108.99888,31.466517 c -0.0603,-0.154845 -0.12334,-0.312333 -0.18899,-0.472469 0.27038,0.08139 0.53812,0.160136 0.80321,0.236233 -0.0446,0.03414 -0.0919,0.06564 -0.14175,0.0945 -0.0131,0.01839 -0.0289,0.03414 -0.0472,0.04725 0.003,0.01839 0.003,0.03414 0,0.04725 -0.1391,0.01839 -0.28084,0.03414 -0.42523,0.04725 z"
       inkscape:path-effect="#path-effect896"
       id="path894"
       d="m 108.96802,31.389377 c -0.0309,-0.07714 -0.0938,-0.234643 0.009,-0.275151 0.10331,-0.04051 0.37105,0.03824 0.48002,0.09269 0.10898,0.05445 0.0617,0.08598 0.0299,0.109798 -0.0318,0.02382 -0.0475,0.0396 -0.0554,0.05666 -0.008,0.01705 -0.008,0.0328 -0.0776,0.0471 -0.0697,0.0143 -0.21145,0.03005 -0.28349,0.03805 -0.072,0.008 -0.0721,0.008 -0.10293,-0.06915 z"
       style="fill:none;stroke:#000000;stroke-width:0.264583px;stroke-linecap:butt;stroke-linejoin:miter;stroke-opacity:1" />
    <path
       inkscape:original-d="m 98.273808,26.647322 c 0.317627,-0.186343 0.632605,-0.375331 0.944941,-0.566965 0.0026,-0.02885 0.0026,-0.06035 0,-0.09449 0.254629,-0.02885 0.506613,-0.06035 0.755951,-0.09449 0.0026,-0.02885 0.0026,-0.06035 0,-0.09449 0.22313,-0.02885 0.44362,-0.06035 0.66146,-0.09449 0.25463,-0.09185 0.50661,-0.186342 0.75595,-0.283482 0.47512,0.0026 0.94759,0.0026 1.41741,0"
       inkscape:path-effect="#path-effect900"
       id="path898"
       d="m 98.273808,26.647322 c 0.315759,-0.189456 0.630738,-0.378443 0.787839,-0.487129 0.157102,-0.108686 0.157102,-0.140186 0.284233,-0.173147 0.127132,-0.03296 0.379116,-0.06446 0.503968,-0.09449 0.124852,-0.03003 0.124852,-0.06153 0.236202,-0.09451 0.11136,-0.03298 0.33185,-0.06447 0.5677,-0.127583 0.23584,-0.06311 0.48782,-0.157601 0.85065,-0.204576 0.36283,-0.04698 0.8353,-0.04698 1.30512,-0.04698"
       style="fill:none;stroke:#000000;stroke-width:0.365;stroke-linecap:butt;stroke-linejoin:miter;stroke-miterlimit:4;stroke-dasharray:none;stroke-opacity:1" />
    <path
       inkscape:original-d="m 111.03051,24.095982 c 0.16013,-0.21784 0.31762,-0.438327 0.47246,-0.661458 0.25463,-0.09185 0.50662,-0.186343 0.75596,-0.283483 0.16013,0.0026 0.31762,0.0026 0.47247,0 0.91609,0.0026 1.82953,0.0026 2.74032,0"
       inkscape:path-effect="#path-effect904"
       id="path902"
       d="m 111.03051,24.095982 c 0.15713,-0.219984 0.31462,-0.440472 0.52026,-0.598484 0.20563,-0.158011 0.45762,-0.252507 0.66296,-0.299482 0.20533,-0.04697 0.36282,-0.04697 0.89829,-0.04697 0.53547,0 1.44891,0 2.3597,0"
       style="fill:none;stroke:#000000;stroke-width:0.365;stroke-linecap:butt;stroke-linejoin:miter;stroke-miterlimit:4;stroke-dasharray:none;stroke-opacity:1" />
    <path
       inkscape:original-d="m 94.816669,41.34925 c -0.501322,0.475118 -1.00529,0.947587 -1.511903,1.417413 -0.06035,0.191632 -0.123347,0.380621 -0.18899,0.566962 -0.123346,0.128641 -0.249338,0.254633 -0.377975,0.377979 0.0026,0.06564 0.0026,0.128637 0,0.188986 -0.186344,0.286129 -0.37533,0.569611 -0.566966,0.850448 -0.18634,0.443616 -0.37533,0.884589 -0.566962,1.322916 -0.186343,0.25463 -0.375333,0.506614 -0.566965,0.755952 -0.123346,0.286128 -0.249338,0.569611 -0.377976,0.850448 -0.09185,0.128637 -0.186343,0.254629 -0.283482,0.377975 -0.186344,0.695603 -0.37533,1.388558 -0.566965,2.078869 -0.02885,0.223131 -0.06035,0.443619 -0.09449,0.661458 -0.09185,0.380622 -0.186343,0.758597 -0.283482,1.133927 0.0026,0.254633 0.0026,0.506617 0,0.755955 -0.06035,0.191632 -0.123346,0.380621 -0.188989,0.566962 0.0026,0.09714 0.0026,0.191635 0,0.283483 -0.02885,0.0026 -0.06035,0.0026 -0.09449,0 0.03414,0.254629 0.06564,0.506616 0.09449,0.755954 -0.02885,0.601107 -0.06035,1.19957 -0.09449,1.795386 0.0026,0.380621 0.0026,0.758597 0,1.133927 -0.06035,0.569611 -0.123346,1.136576 -0.188986,1.700895 -0.06035,0.128638 -0.123346,0.25463 -0.188989,0.377976 0.06564,0.632605 0.128637,1.262565 0.188989,1.889879"
       inkscape:path-effect="#path-effect908"
       id="path906"
       d="m 94.816669,41.34925 c -0.50388,0.472389 -1.007847,0.944859 -1.291638,1.276423 -0.28379,0.331564 -0.346788,0.520552 -0.441018,0.677249 -0.09423,0.156697 -0.220221,0.28269 -0.283217,0.378506 -0.063,0.09582 -0.063,0.158813 -0.157693,0.331035 -0.0947,0.172221 -0.283686,0.455702 -0.472744,0.818262 -0.189058,0.36256 -0.378046,0.803534 -0.566919,1.149585 -0.188873,0.346052 -0.377862,0.598036 -0.535466,0.866171 -0.157603,0.268135 -0.283595,0.551618 -0.393725,0.755953 -0.110129,0.204336 -0.204623,0.330327 -0.346449,0.740485 -0.141827,0.410159 -0.330815,1.103113 -0.440972,1.56005 -0.110157,0.456937 -0.141654,0.677425 -0.204724,0.976478 -0.06307,0.299053 -0.157564,0.677028 -0.204577,0.992399 -0.04701,0.31537 -0.04701,0.567354 -0.07878,0.78731 -0.03176,0.219956 -0.09476,0.408944 -0.125992,0.551214 -0.03123,0.14227 -0.03123,0.236765 -0.04566,0.282689 -0.01442,0.04592 -0.04592,0.04592 -0.04706,0.173381 -0.0011,0.127457 0.03036,0.379444 0.03011,0.804451 -2.49e-4,0.425007 -0.03175,1.02347 -0.04743,1.511761 -0.01568,0.488292 -0.01568,0.866268 -0.04731,1.338577 -0.03163,0.472309 -0.09462,1.039274 -0.157753,1.38512 -0.06313,0.345846 -0.126128,0.471838 -0.125719,0.850725 4.08e-4,0.378888 0.06341,1.008848 0.126113,1.635926"
       style="fill:none;stroke:#000000;stroke-width:0.765;stroke-linecap:butt;stroke-linejoin:miter;stroke-miterlimit:4;stroke-dasharray:none;stroke-opacity:1" />
    <path
       inkscape:original-d="m 120.70132,36.868889 c 0.7271,0.654942 1.45156,1.307141 2.17336,1.956601 0.0971,0.10057 0.19164,0.198401 0.28349,0.293491 0.003,0.100569 0.003,0.198397 0,0.29349 0.12863,0.133179 0.25463,0.263619 0.37797,0.39132 0.003,0.06796 0.003,0.133179 0,0.195659 0.16014,0.1984 0.31763,0.394061 0.47247,0.58698 0.0341,0.10057 0.0656,0.198401 0.0945,0.29349 0.34912,0.361448 0.6956,0.72016 1.03943,1.07613 0.0971,0.133179 0.19164,0.263619 0.28348,0.39132 0.003,0.06796 0.003,0.133179 0,0.195661 0.0971,0.100569 0.19164,0.198398 0.28349,0.29349 0.25463,0.55711 0.50661,1.111479 0.75595,1.663111 0.31763,0.426669 0.6326,0.850597 0.94494,1.271788 0.0341,0.133178 0.0656,0.263618 0.0945,0.39132 0.34913,0.948431 0.69561,1.89412 1.03944,2.837072 0.003,0.231008 0.003,0.459277 0,0.684809 0.0656,0.13318 0.12863,0.26362 0.18899,0.39132 0.0341,0.32884 0.0656,0.654938 0.0945,0.978301 0.0656,0.198397 0.12864,0.394058 0.18899,0.586977 0.0341,0.03535 0.0656,0.06796 0.0945,0.09784 0.0342,0.263619 0.0656,0.524499 0.0945,0.782639 0.16014,0.426669 0.31763,0.850599 0.47248,1.271791 0.003,0.165789 0.003,0.328837 0,0.489148 0.16013,0.817989 0.31762,1.633239 0.47247,2.44575 0.003,0.361452 0.003,0.72016 0,1.07613 0.0656,0.06796 0.12863,0.133181 0.18899,0.195661 0.0656,0.557109 0.12863,1.11148 0.18898,1.66311 0.003,0.394059 0.003,0.785379 0,1.173959 0.003,-0.02987 0.003,-0.06248 0,-0.09783 -0.0603,0.133178 -0.12334,0.263618 -0.18898,0.391318"
       inkscape:path-effect="#path-effect912"
       id="path910"
       d="m 120.70132,36.868889 c 0.72728,0.654744 1.45173,1.306947 1.86111,1.682048 0.40937,0.375102 0.50389,0.472954 0.54982,0.570783 0.0459,0.09783 0.0459,0.195658 0.11024,0.309793 0.0643,0.114134 0.19031,0.244579 0.25198,0.342409 0.0617,0.09783 0.0617,0.163048 0.14161,0.293597 0.0799,0.130548 0.23742,0.326209 0.33125,0.473095 0.0938,0.146887 0.12532,0.244718 0.31511,0.472736 0.18979,0.228017 0.53627,0.58673 0.75653,0.831452 0.22026,0.244723 0.31477,0.375185 0.36091,0.472856 0.0461,0.09767 0.0461,0.162891 0.0947,0.244406 0.0486,0.08152 0.14308,0.179366 0.31574,0.50573 0.17266,0.326365 0.42464,0.880733 0.70851,1.369767 0.28386,0.489034 0.59884,0.912958 0.77134,1.190219 0.1725,0.27726 0.204,0.4077 0.3932,0.945812 0.18921,0.538111 0.53569,1.4838 0.70833,2.070514 0.17264,0.586714 0.17264,0.814983 0.20492,0.99459 0.0323,0.179606 0.0953,0.310059 0.14189,0.538184 0.0466,0.228125 0.0781,0.554223 0.12573,0.815242 0.0476,0.261019 0.11063,0.456693 0.15867,0.570559 0.048,0.113866 0.0795,0.146478 0.1099,0.293378 0.0304,0.146901 0.0619,0.407769 0.1568,0.750304 0.0949,0.342536 0.25241,0.766465 0.33055,1.05969 0.0781,0.293225 0.0781,0.456273 0.15719,0.94562 0.079,0.489346 0.23654,1.304596 0.31498,1.891381 0.0784,0.586785 0.0784,0.945493 0.11125,1.157447 0.0328,0.211955 0.0958,0.277192 0.15767,0.587118 0.0618,0.309926 0.12484,0.864301 0.15616,1.337014 0.0313,0.472714 0.0313,0.864034 0.0313,1.043389 0,0.179355 0,0.146745 -0.0318,0.194873 -0.0318,0.04813 -0.0948,0.178586 -0.1572,0.30784"
       style="fill:none;stroke:#000000;stroke-width:0.778386;stroke-linecap:butt;stroke-linejoin:miter;stroke-miterlimit:4;stroke-dasharray:none;stroke-opacity:1" />
    <path
       sodipodi:open="true"
       d="m 101.60507,27.917385 a 0.6850819,0.69200188 0 0 1 -0.30967,0.925486 0.6850819,0.69200188 0 0 1 -0.91731,-0.30954 0.6850819,0.69200188 0 0 1 0.30322,-0.927663 0.6850819,0.69200188 0 0 1 0.91944,0.303015"
       sodipodi:arc-type="arc"
       sodipodi:end="5.8114057"
       sodipodi:start="5.8254727"
       sodipodi:ry="0.69200188"
       sodipodi:rx="0.6850819"
       sodipodi:cy="28.223179"
       sodipodi:cx="100.99051"
       sodipodi:type="arc"
       id="path920"
       style="fill:#ffffff;fill-opacity:1;stroke:none;stroke-width:0.224091;stroke-miterlimit:4;stroke-dasharray:none;stroke-opacity:1" />
    <path
       style="fill:#ffffff;fill-opacity:1;stroke:none;stroke-width:0.224091;stroke-miterlimit:4;stroke-dasharray:none;stroke-opacity:1"
       id="path920-4"
       sodipodi:type="arc"
       sodipodi:cx="113.4401"
       sodipodi:cy="25.513393"
       sodipodi:rx="0.6850819"
       sodipodi:ry="0.69200188"
       sodipodi:start="5.8254727"
       sodipodi:end="5.8114057"
       sodipodi:arc-type="arc"
       d="m 114.05467,25.2076 a 0.6850819,0.69200188 0 0 1 -0.30967,0.925485 0.6850819,0.69200188 0 0 1 -0.91732,-0.309539 0.6850819,0.69200188 0 0 1 0.30322,-0.927663 0.6850819,0.69200188 0 0 1 0.91945,0.303015"
       sodipodi:open="true" />
    <path
       inkscape:original-d="m 94.462997,35.138775 c 0.09174,0.0026 0.180826,0.0026 0.26727,0 0.470367,0.336733 0.938089,0.67082 1.403165,1.002261 0.22537,0.136281 0.448095,0.269916 0.668174,0.400904 0.114008,0.02492 0.22537,0.04719 0.334087,0.06682 0.13628,0.09174 0.269915,0.180826 0.400904,0.267269 0.114008,0.0026 0.22537,0.0026 0.334087,0 0.06946,0.04719 0.13628,0.09174 0.200452,0.133635 0.203098,0.02492 0.40355,0.04719 0.601356,0.06682 0.114009,0.04719 0.225371,0.09174 0.334087,0.133635 0.136281,0.06946 0.269916,0.136281 0.400904,0.200452 -0.0419,0.0026 -0.08644,0.0026 -0.133634,0 -0.153262,0.0026 -0.309169,0.0026 -0.467722,0 -0.01963,0.02492 -0.0419,0.04719 -0.06682,0.06682 -0.687801,-0.06417 -1.378247,-0.130989 -2.071339,-0.200452 -0.175534,-0.01963 -0.353714,-0.0419 -0.534539,-0.06682 -0.153262,-0.06417 -0.309169,-0.130989 -0.467722,-0.200452 -0.06417,-0.01963 -0.130989,-0.0419 -0.200452,-0.06682 -0.01963,0.0026 -0.0419,0.0026 -0.06682,0 0.09173,0.04719 0.180825,0.09174 0.267269,0.133634 0.292188,0.09174 0.58173,0.180826 0.868626,0.26727 0.203098,0.09174 0.40355,0.180826 0.601357,0.26727 0.247642,0.13628 0.492639,0.269915 0.734991,0.400904 0.06946,0.0026 0.13628,0.0026 0.200452,0 0.09174,0.06946 0.180825,0.136281 0.267269,0.200452 0.04719,0.0026 0.09174,0.0026 0.133635,0 0.314461,0.114008 0.626275,0.225371 0.935443,0.334087 0.180826,0.0026 0.359006,0.0026 0.534539,0 0.158554,0.04719 0.314454,0.09174 0.467714,0.133635 0.0249,0.0026 0.0472,0.0026 0.0668,0 -0.0196,0.0026 -0.0419,0.0026 -0.0668,0 -0.0864,0.0026 -0.17553,0.0026 -0.26727,0 -0.13098,0.0026 -0.264615,0.0026 -0.400896,0 -0.754617,0.0026 -1.511881,0.0026 -2.271791,0 -0.331441,-0.01963 -0.665528,-0.0419 -1.00226,-0.06682 0.114008,0.02492 0.22537,0.04719 0.334087,0.06682 0.158553,0.114008 0.31446,0.22537 0.467721,0.334087 0.06946,0.0026 0.136281,0.0026 0.200452,0 0.203098,0.06946 0.403551,0.13628 0.601357,0.200452 0.13628,0.06946 0.269915,0.13628 0.400904,0.200452 0.269916,0.04719 0.537185,0.09174 0.801809,0.133635 0.06946,0.04719 0.13628,0.09173 0.200452,0.133635 0.292188,0.02492 0.581725,0.04719 0.868625,0.06682 0.359,0.06946 0.71536,0.13628 1.06908,0.200452 0.114,0.0026 0.22537,0.0026 0.33408,0 0.0249,0.0026 0.0472,0.0026 0.0668,0 -0.91053,-0.06417 -1.823693,-0.130989 -2.739509,-0.200452 -0.286896,0.0026 -0.576439,0.0026 -0.868626,0 -0.130989,0.0026 -0.264624,0.0026 -0.400905,0 -0.01963,0.0026 -0.0419,0.0026 -0.06682,0 0.02492,0.0026 0.04719,0.0026 0.06682,0 0.06946,0.02492 0.136281,0.04719 0.200453,0.06682 0.247642,0.06946 0.492639,0.136281 0.734991,0.200452 0.09173,0.04719 0.180825,0.09174 0.267269,0.133635 0.114008,0.0026 0.225371,0.0026 0.334087,0 0.09174,0.04719 0.180826,0.09174 0.26727,0.133635 0.158553,0.0026 0.31446,0.0026 0.46772,0 0.2031,0.06946 0.40355,0.13628 0.60135,0.200452 0.24765,0.04719 0.49264,0.09174 0.735,0.133635 0.13628,0.04719 0.26991,0.09173 0.4009,0.133635 0.38128,0.02492 0.75991,0.04719 1.13589,0.06682 0.0695,0.0026 0.13629,0.0026 0.20046,0 -0.19781,0.06946 -0.39826,0.136282 -0.60136,0.200454 -0.0419,0.02492 -0.0864,0.04719 -0.13363,0.06681 -0.0864,0.02492 -0.17554,0.04719 -0.26727,0.06682 -0.2869,0.0026 -0.57644,0.0026 -0.86863,0 -0.35371,0.02492 -0.71007,0.04719 -1.06908,0.06682 -0.309162,-0.0419 -0.620977,-0.08645 -0.935437,-0.133636 0.180825,0.06946 0.359005,0.136282 0.534539,0.200454 0.13628,0.06946 0.269908,0.136281 0.400898,0.200451 0.13628,0.02492 0.26992,0.04719 0.40091,0.06682 0.0695,0.0026 0.13628,0.0026 0.20045,0 0.18082,0.0026 0.359,0.0026 0.53454,0 0.15855,0.06946 0.31446,0.136281 0.46772,0.200453 0.15855,0.0026 0.31446,0.0026 0.46772,0 0.26992,0.06946 0.53719,0.136279 0.80181,0.200451 0.0917,0.0026 0.18082,0.0026 0.26727,0 0.22537,0.02492 0.44809,0.04719 0.66817,0.06682 -0.15326,0.04719 -0.30917,0.09174 -0.46772,0.133633 -0.0642,0.02492 -0.13099,0.04719 -0.20045,0.06682 -0.10872,0.0026 -0.22008,0.0026 -0.33409,0 -0.22008,0.06946 -0.4428,0.136282 -0.66817,0.200454 -0.44281,0.02492 -0.88825,0.04719 -1.33635,0.06682 0.003,0.04719 0.003,0.09173 0,0.133633 0.13628,0.02492 0.26992,0.04719 0.40091,0.06682 0.0695,0.04719 0.13628,0.09174 0.20045,0.133635 0.93809,0.02492 1.87353,0.04719 2.80633,0.06682 0.42582,0.0026 0.849,0.0026 1.26953,0 0.2031,0.0026 0.40355,0.0026 0.60135,0 0.0472,0.0026 0.0917,0.0026 0.13364,0 -0.0642,0.02492 -0.13099,0.04719 -0.20045,0.06682 -0.0196,0.04719 -0.0419,0.09174 -0.0668,0.133636 -0.0419,0.0026 -0.0864,0.0026 -0.13364,0 -0.13098,0.06946 -0.26462,0.136282 -0.4009,0.200451 -0.42053,0.06946 -0.84371,0.136282 -1.26953,0.200454 -0.15326,0.06946 -0.30917,0.136279 -0.46772,0.200451 -0.0642,0.0026 -0.13099,0.0026 -0.20045,0 -0.0196,0.0026 -0.0419,0.0026 -0.0668,0 0.67082,0.02492 1.33899,0.04719 2.00452,0.06682 0.29219,-0.06417 0.58173,-0.13099 0.86863,-0.200451"
       inkscape:path-effect="#path-effect991"
       id="path989"
       d="m 94.462997,35.138775 c 0.09174,0 0.180826,0 0.45941,0.168116 0.278585,0.168116 0.746307,0.502203 1.091584,0.735925 0.345278,0.233722 0.568003,0.367357 0.735017,0.444683 0.167013,0.07733 0.278375,0.0996 0.400874,0.155993 0.1225,0.05639 0.256133,0.145483 0.378428,0.18901 0.122295,0.04353 0.233657,0.04353 0.322949,0.06682 0.08929,0.02329 0.156114,0.06784 0.289674,0.10039 0.133559,0.03255 0.334011,0.05483 0.490063,0.08871 0.156052,0.03389 0.267416,0.07843 0.389904,0.134268 0.122488,0.05584 0.256124,0.122654 0.300404,0.155268 0.04428,0.03261 -2.61e-4,0.03261 -0.100489,0.03261 -0.100228,0 -0.256135,0 -0.346549,0.01114 -0.09041,0.01114 -0.112684,0.03341 -0.467607,0.01128 -0.354924,-0.02213 -1.04537,-0.08895 -1.479655,-0.133451 -0.434285,-0.0445 -0.612465,-0.06677 -0.779377,-0.110819 -0.166912,-0.04404 -0.32282,-0.110861 -0.434191,-0.155561 -0.111371,-0.0447 -0.178189,-0.06697 -0.223,-0.07864 -0.04481,-0.01167 -0.06708,-0.01167 -0.03341,0.0114 0.03367,0.02306 0.122766,0.06761 0.312075,0.134122 0.189308,0.06651 0.478849,0.1556 0.723862,0.244913 0.245013,0.08931 0.445464,0.178402 0.668168,0.289915 0.222705,0.111512 0.467702,0.245147 0.623355,0.311105 0.155653,0.06596 0.222473,0.06596 0.300586,0.100478 0.07811,0.03452 0.167202,0.101337 0.23386,0.133635 0.06666,0.0323 0.111208,0.0323 0.289655,0.08855 0.178448,0.05625 0.490262,0.167612 0.734989,0.222725 0.244728,0.05511 0.422908,0.05511 0.590201,0.07783 0.167294,0.02272 0.323194,0.06727 0.412024,0.08909 0.0888,0.02182 0.11113,0.02182 0.11113,0.02182 0,0 -0.0223,0 -0.078,0 -0.0556,0 -0.14478,0 -0.25614,0 -0.11136,0 -0.244995,0 -0.690444,0 -0.445449,0 -1.202713,0 -1.748307,-0.01104 -0.545593,-0.01104 -0.87968,-0.03332 -0.99092,-0.0331 -0.111241,2.12e-4 1.21e-4,0.02249 0.133731,0.09007 0.13361,0.06759 0.289517,0.178948 0.400699,0.233556 0.111182,0.05461 0.178003,0.05461 0.311902,0.08855 0.133898,0.03394 0.334352,0.100755 0.501394,0.167837 0.167043,0.06708 0.300679,0.133899 0.501046,0.189037 0.200366,0.05514 0.467636,0.09968 0.634703,0.144994 0.167067,0.04531 0.233884,0.08986 0.411955,0.122358 0.178071,0.0325 0.467611,0.05477 0.790661,0.09949 0.32305,0.04472 0.67941,0.111538 0.91307,0.144662 0.23367,0.03312 0.34504,0.03312 0.41184,0.03312 0.0668,0 0.0891,0 -0.35627,-0.03331 -0.44537,-0.0333 -1.358535,-0.100122 -1.95998,-0.133634 -0.601445,-0.03351 -0.890988,-0.03351 -1.102576,-0.03351 -0.211588,0 -0.345223,0 -0.423179,0 -0.07796,0 -0.100225,0 -0.100225,0 0,0 0.02227,0 0.06708,0.01167 0.04481,0.01167 0.111629,0.03394 0.267516,0.07838 0.155887,0.04444 0.400885,0.111261 0.567946,0.167308 0.167062,0.05605 0.256158,0.100594 0.356118,0.122073 0.09996,0.02148 0.211324,0.02148 0.311816,0.04454 0.100492,0.02307 0.189581,0.06761 0.311814,0.08909 0.122233,0.02148 0.27814,0.02148 0.45658,0.05542 0.17845,0.03394 0.3789,0.100756 0.60155,0.156183 0.22265,0.05543 0.46764,0.09997 0.65704,0.14477 0.18939,0.0448 0.32302,0.08934 0.57896,0.122306 0.25595,0.03296 0.63458,0.05524 0.85724,0.06629 0.22267,0.01105 0.28946,0.01105 0.22211,0.0442 -0.0673,0.03314 -0.2678,0.09996 -0.39056,0.144507 -0.12277,0.04454 -0.16728,0.0668 -0.23368,0.0891 -0.0664,0.0223 -0.15555,0.04459 -0.34447,0.05596 -0.18893,0.01137 -0.47847,0.01137 -0.80151,0.02243 -0.32304,0.01106 -0.67939,0.03333 -1.01323,0.02249 -0.333845,-0.01085 -0.64566,-0.05539 -0.712365,-0.04387 -0.0667,0.01152 0.111477,0.07834 0.267376,0.145354 0.155899,0.06701 0.289529,0.133829 0.423079,0.177832 0.13355,0.044 0.26719,0.06627 0.36725,0.07716 0.10007,0.01089 0.16685,0.01089 0.28934,0.01089 0.1225,0 0.30068,0 0.468,0.03409 0.16732,0.03409 0.32323,0.100912 0.47886,0.133637 0.15563,0.03272 0.31154,0.03272 0.52336,0.06652 0.21183,0.0338 0.4791,0.100615 0.65702,0.133634 0.17793,0.03302 0.26705,0.03302 0.42308,0.0443 0.15603,0.01128 0.37875,0.03355 0.41159,0.06657 0.0328,0.03302 -0.12307,0.07756 -0.23452,0.110958 -0.11146,0.0334 -0.17825,0.05566 -0.26681,0.06706 -0.0886,0.0114 -0.19992,0.0114 -0.36744,0.04455 -0.16752,0.03316 -0.39024,0.09997 -0.72392,0.14471 -0.33369,0.04474 -0.77913,0.06701 -1.00311,0.101806 -0.22398,0.03479 -0.22398,0.07933 -0.15566,0.111672 0.0683,0.03234 0.20196,0.05461 0.30222,0.0888 0.10027,0.03418 0.16706,0.07871 0.66802,0.111138 0.50095,0.03242 1.43639,0.0547 2.11567,0.0658 0.67928,0.0111 1.10246,0.0111 1.41427,0.0111 0.31182,0 0.51227,0 0.63477,0 0.1225,0 0.167,0 0.15534,0.01088 -0.0117,0.01088 -0.0785,0.03314 -0.12404,0.06734 -0.0456,0.0342 -0.0679,0.07876 -0.0997,0.100501 -0.0318,0.02174 -0.0763,0.02174 -0.16622,0.05488 -0.0899,0.03314 -0.22355,0.09996 -0.50139,0.166873 -0.27785,0.06691 -0.70103,0.133729 -0.99102,0.200444 -0.28999,0.06672 -0.4459,0.133533 -0.55659,0.167215 -0.11069,0.03368 -0.17748,0.03368 -0.22201,0.03368 -0.0445,0 -0.0668,0 0.25617,0.01118 0.32301,0.01118 0.99118,0.03346 1.46964,0.01091 0.47846,-0.02254 0.768,-0.08936 1.05561,-0.155728"
       style="fill:none;stroke:#000000;stroke-width:0.264583px;stroke-linecap:butt;stroke-linejoin:miter;stroke-opacity:1" />
    <path
       inkscape:original-d="m 119.38588,29.058394 c -0.71007,0.893544 -1.42279,1.784442 -2.13815,2.672695 -0.19781,0.180826 -0.39826,0.359005 -0.60136,0.534539 0.0472,-0.01963 0.0917,-0.0419 0.13363,-0.06682 0.51492,-0.108717 1.02718,-0.220079 1.5368,-0.334087 0.2031,-0.197807 0.40355,-0.398259 0.60136,-0.601356 0.0917,-0.01963 0.18083,-0.0419 0.26727,-0.06682 0.13628,-0.08644 0.26991,-0.175534 0.4009,-0.267269 -0.0196,0.02492 -0.0419,0.04719 -0.0668,0.06682 -0.0642,0.09174 -0.13098,0.180825 -0.20045,0.26727 -0.13099,0.158552 -0.26462,0.31446 -0.4009,0.467721 -0.0864,0.04719 -0.17553,0.09174 -0.26727,0.133635 -0.33144,0.336732 -0.66553,0.670819 -1.00226,1.002261 -0.13099,0.09173 -0.26463,0.180825 -0.4009,0.267269 -0.19781,0.203098 -0.39826,0.40355 -0.60136,0.601357 -0.10872,0.09173 -0.22008,0.180825 -0.33409,0.267269 -0.0196,0.04719 -0.0419,0.09174 -0.0668,0.133635 -0.0196,0.0026 -0.0419,0.0026 -0.0668,0 0.0249,0.0026 0.0472,0.0026 0.0668,0 0.15856,0.0026 0.31446,0.0026 0.46772,0 0.29219,0.0026 0.58174,0.0026 0.86863,0 0.18083,-0.06417 0.35901,-0.130989 0.53454,-0.200452 0.0917,-0.01963 0.18083,-0.0419 0.26727,-0.06682 0.003,-0.01963 0.003,-0.0419 0,-0.06682 0.2031,-0.197806 0.40355,-0.398259 0.60136,-0.601356 0.0917,-0.06417 0.18082,-0.13099 0.26727,-0.200453 0.0472,-0.08644 0.0917,-0.175534 0.13363,-0.267269 -0.0864,0.269915 -0.17553,0.537185 -0.26727,0.801808 -0.17553,0.269916 -0.35371,0.537185 -0.53454,0.801809 -0.0419,0.02492 -0.0864,0.04719 -0.13363,0.06682 -0.13099,0.203098 -0.26463,0.403551 -0.40091,0.601357 -0.15326,0.13628 -0.30917,0.269915 -0.46772,0.400904 -0.13099,0.136281 -0.26462,0.269916 -0.4009,0.400904 -0.13099,0.09174 -0.26463,0.180826 -0.40091,0.26727 -0.13099,0.04719 -0.26462,0.09174 -0.4009,0.133635 -0.0864,0.06946 -0.17553,0.13628 -0.26727,0.200452 -0.0196,0.0026 -0.0419,0.0026 -0.0668,0 0.29219,-0.08644 0.58173,-0.175534 0.86863,-0.26727 0.18082,-0.01963 0.359,-0.0419 0.53454,-0.06682 0.0249,-0.0419 0.0472,-0.08644 0.0668,-0.133635 0.0472,0.0026 0.0917,0.0026 0.13364,0 0.15855,-0.108716 0.31446,-0.220079 0.46772,-0.334087 0.18083,-0.08644 0.359,-0.175534 0.53454,-0.267269 0.13628,-0.153262 0.26991,-0.309169 0.4009,-0.467722 -0.0196,0.114008 -0.0419,0.225371 -0.0668,0.334087 -0.0642,0.06946 -0.13099,0.136281 -0.20046,0.200452 -0.28689,0.425823 -0.57643,0.848999 -0.86862,1.26953 -0.26462,0.225371 -0.5319,0.448095 -0.80181,0.668174 -0.0864,0.114008 -0.17553,0.225371 -0.26727,0.334087 -0.22008,0.158553 -0.4428,0.31446 -0.66817,0.467722 -0.13099,0.13628 -0.26463,0.269915 -0.40091,0.400904 -0.0642,0.04719 -0.13099,0.09174 -0.20045,0.133635 0.15855,-0.08644 0.31446,-0.175534 0.46772,-0.26727 0.11401,-0.01963 0.22537,-0.0419 0.33409,-0.06682 0.0249,-0.130989 0.0472,-0.264624 0.0668,-0.400905 0.15855,-0.06417 0.31446,-0.130988 0.46772,-0.200452 0.2031,-0.175533 0.40355,-0.353713 0.60135,-0.534539 0.18083,-0.08644 0.35901,-0.175533 0.53454,-0.267269 0.0695,0.0026 0.13628,0.0026 0.20046,0 0.003,-0.0419 0.003,-0.08644 0,-0.133635 0.0472,0.0026 0.0917,0.0026 0.13363,0 0.0917,-0.08644 0.18083,-0.175534 0.26727,-0.26727 -0.0196,0.02492 -0.0419,0.04719 -0.0668,0.06682 -0.0196,0.09174 -0.0419,0.180826 -0.0668,0.267269 -0.10871,0.136281 -0.22007,0.269916 -0.33408,0.400905 -0.2869,0.292188 -0.57644,0.58173 -0.86863,0.868626 -0.1978,0.292188 -0.39826,0.581729 -0.60136,0.868626 -0.22007,0.13628 -0.4428,0.269915 -0.66817,0.400904 -0.1978,0.158553 -0.39826,0.31446 -0.60135,0.467722 -0.0419,0.0026 -0.0864,0.0026 -0.13364,0 0.003,0.04719 0.003,0.09173 0,0.133634 0.0249,-0.0419 0.0472,-0.08644 0.0668,-0.133634 0.18082,-0.01963 0.359,-0.0419 0.53454,-0.06682 0.0695,-0.06417 0.13628,-0.130989 0.20045,-0.200452 0.29219,-0.153261 0.58173,-0.309169 0.86862,-0.467722 0.15856,-0.08644 0.31447,-0.175533 0.46773,-0.267269 -0.15326,0.247643 -0.30917,0.49264 -0.46773,0.734991 0.003,0.04719 0.003,0.09174 0,0.133635 -0.1978,0.203098 -0.39825,0.40355 -0.60135,0.601356 -0.0419,0.0026 -0.0864,0.0026 -0.13364,0 0.003,0.02492 0.003,0.04719 0,0.06682 -0.0864,0.04719 -0.17553,0.09173 -0.26727,0.133635 -0.0419,0.0026 -0.0864,0.0026 -0.13363,0 -0.0419,0.04719 -0.0864,0.09173 -0.13364,0.133634"
       inkscape:path-effect="#path-effect999"
       id="path997"
       d="m 119.38588,29.058394 c -0.71297,0.89122 -1.42569,1.78212 -1.88207,2.316425 -0.45637,0.534305 -0.65682,0.712483 -0.73433,0.790242 -0.0775,0.07776 -0.033,0.0555 0.24589,-0.01127 0.27888,-0.06678 0.79114,-0.178137 1.14651,-0.333829 0.35537,-0.155693 0.55583,-0.356143 0.70152,-0.467736 0.14568,-0.111592 0.23481,-0.133875 0.34554,-0.189525 0.11073,-0.05565 0.24437,-0.14474 0.29975,-0.17795 0.0554,-0.03321 0.0331,-0.01092 -0.0116,0.04498 -0.0447,0.0559 -0.11151,0.144968 -0.21167,0.267366 -0.10016,0.122399 -0.23379,0.278305 -0.34451,0.378148 -0.11073,0.09984 -0.19985,0.144406 -0.41197,0.333987 -0.21212,0.18958 -0.5462,0.523669 -0.77976,0.735053 -0.23355,0.211384 -0.36719,0.300478 -0.53454,0.445451 -0.16734,0.144973 -0.3678,0.345424 -0.52354,0.490066 -0.15575,0.144642 -0.26711,0.233732 -0.33435,0.301203 -0.0672,0.06747 -0.0895,0.112034 -0.11018,0.133773 -0.0207,0.02174 -0.043,0.02174 -0.043,0.02174 0,0 0.0223,0 0.11138,0 0.0891,0 0.24498,0 0.46771,0 0.22272,0 0.51227,0 0.74553,-0.03368 0.23326,-0.03368 0.41144,-0.100499 0.54527,-0.145001 0.13382,-0.0445 0.22295,-0.06678 0.26656,-0.0875 0.0436,-0.02072 0.0436,-0.04299 0.14384,-0.155674 0.10022,-0.112686 0.30068,-0.313137 0.44565,-0.446922 0.14497,-0.133785 0.23408,-0.200618 0.30042,-0.277886 0.0663,-0.07727 0.11088,-0.166343 0.0886,-0.077 -0.0223,0.08934 -0.11136,0.356623 -0.24493,0.623404 -0.13358,0.266781 -0.31176,0.53405 -0.42239,0.678253 -0.11063,0.144203 -0.15513,0.166459 -0.24497,0.2784 -0.0898,0.11194 -0.22348,0.312395 -0.36794,0.479039 -0.14446,0.166643 -0.30037,0.30028 -0.44525,0.434008 -0.14487,0.133728 -0.27851,0.267361 -0.41184,0.378521 -0.13333,0.111159 -0.26696,0.200249 -0.40011,0.267005 -0.13315,0.06676 -0.26678,0.111301 -0.37871,0.167077 -0.11193,0.05577 -0.20104,0.122613 -0.2556,0.156181 -0.0546,0.03357 -0.0769,0.03357 0.0563,-0.01123 0.13316,-0.0448 0.4227,-0.133892 0.65686,-0.189459 0.23416,-0.05557 0.41234,-0.07784 0.51116,-0.110575 0.0988,-0.03274 0.1211,-0.07729 0.15609,-0.10009 0.035,-0.0228 0.0795,-0.0228 0.17867,-0.07866 0.0992,-0.05586 0.25508,-0.167224 0.42241,-0.267536 0.16732,-0.100312 0.34549,-0.189398 0.50078,-0.311525 0.15529,-0.122126 0.28892,-0.278032 0.34449,-0.299398 0.0556,-0.02137 0.0333,0.09 -0.011,0.178079 -0.0443,0.08808 -0.11115,0.154881 -0.28952,0.400162 -0.17838,0.245282 -0.46792,0.668458 -0.746,0.991016 -0.27808,0.322558 -0.54535,0.545287 -0.72378,0.712588 -0.17843,0.167301 -0.26754,0.278684 -0.42305,0.411972 -0.15551,0.133289 -0.37823,0.289194 -0.55668,0.434152 -0.17845,0.144957 -0.31208,0.278593 -0.41202,0.367486 -0.0999,0.08889 -0.16673,0.133426 -0.12206,0.111113 0.0447,-0.02231 0.20058,-0.111406 0.3348,-0.167047 0.13423,-0.05564 0.24559,-0.07791 0.31121,-0.15459 0.0656,-0.07668 0.0879,-0.210318 0.17779,-0.311888 0.0899,-0.101571 0.24581,-0.168389 0.42343,-0.290688 0.17763,-0.122298 0.37808,-0.300478 0.56784,-0.434304 0.18976,-0.133826 0.36794,-0.222916 0.49125,-0.267196 0.12331,-0.04428 0.19009,-0.04428 0.22218,-0.06523 0.0321,-0.02095 0.0321,-0.06549 0.0557,-0.08909 0.0236,-0.0236 0.0681,-0.0236 0.1336,-0.06813 0.0655,-0.04454 0.15461,-0.133647 0.18803,-0.167059 0.0334,-0.03341 0.0111,-0.01112 -0.0114,0.04549 -0.0225,0.05661 -0.0448,0.145707 -0.11145,0.256263 -0.0667,0.110555 -0.17805,0.24419 -0.37839,0.45565 -0.20034,0.21146 -0.48989,0.501001 -0.73507,0.790816 -0.24519,0.289816 -0.44565,0.57936 -0.65665,0.790439 -0.21101,0.211078 -0.43374,0.344716 -0.64553,0.489577 -0.21179,0.144861 -0.41225,0.300773 -0.5336,0.378868 -0.12136,0.07809 -0.16586,0.07809 -0.18948,0.10169 -0.0236,0.0236 -0.0236,0.06814 -0.0127,0.06735 0.0109,-7.89e-4 0.0331,-0.04534 0.13476,-0.07942 0.10162,-0.03408 0.2798,-0.05635 0.40117,-0.100763 0.12137,-0.04441 0.18817,-0.111212 0.36683,-0.22283 0.17865,-0.111618 0.46819,-0.267525 0.69087,-0.390013 0.22268,-0.122487 0.37859,-0.211577 0.37794,-0.133037 -6.4e-4,0.07854 -0.15655,0.323537 -0.23429,0.469289 -0.0777,0.145752 -0.0777,0.190302 -0.17796,0.311475 -0.10023,0.121172 -0.30068,0.321624 -0.42185,0.421851 -0.12118,0.100227 -0.16568,0.100227 -0.1893,0.112687 -0.0236,0.01246 -0.0236,0.03473 -0.0676,0.06654 -0.044,0.03181 -0.13312,0.07637 -0.19914,0.09891 -0.066,0.02254 -0.11053,0.02254 -0.15642,0.04481 -0.0459,0.02227 -0.0904,0.06679 -0.13498,0.111362"
       style="fill:none;stroke:#000000;stroke-width:0.264583px;stroke-linecap:butt;stroke-linejoin:miter;stroke-opacity:1" />
  </g>
</svg>
